<?xml version="1.0" encoding="UTF-8"?>
<svg version="1.1" xmlns="http://www.w3.org/2000/svg" width="149" height="158">
<path d="M0 0 C3.0625 0.25 3.0625 0.25 6 1 C7 3 7 3 7 12 C31.42 12 55.84 12 81 12 C81 9.03 81 6.06 81 3 C81.66 2.01 82.32 1.02 83 0 C85.5 -0.3125 85.5 -0.3125 88 0 C90 2 90 2 90.1953125 4.3828125 C90.17210938 5.28773437 90.14890625 6.19265625 90.125 7.125 C90.10695313 8.03507813 90.08890625 8.94515625 90.0703125 9.8828125 C90.04710938 10.58148438 90.02390625 11.28015625 90 12 C91.07378906 11.93039063 92.14757812 11.86078125 93.25390625 11.7890625 C106.21229891 11.20246234 106.21229891 11.20246234 110.4375 14.875 C113.40415704 18.08177811 114.12516719 20.26087947 114.14044189 24.60394287 C114.14615204 25.57406311 114.15186218 26.54418335 114.15774536 27.54370117 C114.15942215 29.14580444 114.15942215 29.14580444 114.16113281 30.78027344 C114.16609772 31.90234192 114.17106262 33.0244104 114.17617798 34.18048096 C114.1908287 37.90678513 114.19760688 41.63304671 114.203125 45.359375 C114.20887458 47.94289146 114.21463233 50.5264079 114.22039795 53.10992432 C114.22957087 57.83997661 114.23586745 62.57001182 114.2388947 67.30007148 C114.2433718 74.25717938 114.26090184 81.21409046 114.2898953 88.17113853 C114.31414352 94.1992724 114.3218404 100.2273134 114.32357025 106.25550079 C114.32659919 108.81835246 114.33463578 111.38120325 114.34775543 113.94402313 C114.36480152 117.53021659 114.36293872 121.11593096 114.35644531 124.70214844 C114.3656601 125.76212036 114.37487488 126.82209229 114.3843689 127.91418457 C114.34464933 134.91359051 113.25142937 139.16963165 108.8125 144.75 C102.58443441 149.73245247 94.74362163 149.29378625 87.12109375 149.2746582 C86.05988312 149.27976913 84.99867249 149.28488007 83.90530396 149.29014587 C80.41597776 149.30398578 76.92685029 149.30308956 73.4375 149.30078125 C71.001871 149.3046707 68.56624268 149.30900589 66.13061523 149.31376648 C61.03334348 149.32121624 55.93614101 149.320946 50.83886719 149.31567383 C44.31553826 149.30987504 37.79249287 149.32682643 31.26921082 149.3500185 C26.24196726 149.36476663 21.21479187 149.36562615 16.18753052 149.36250877 C13.78263792 149.36302124 11.37774142 149.36824502 8.97286987 149.37832069 C5.60802886 149.390691 2.24373879 149.3838898 -1.12109375 149.37231445 C-2.10834442 149.37995819 -3.09559509 149.38760193 -4.11276245 149.39547729 C-10.75342568 149.34512049 -16.6878333 148.65224733 -22.05859375 144.3515625 C-22.74115234 143.49691406 -22.74115234 143.49691406 -23.4375 142.625 C-24.14712891 141.77808594 -24.14712891 141.77808594 -24.87109375 140.9140625 C-27.01394488 137.2808547 -27.12562317 133.28834212 -27.14717102 129.14918518 C-27.15432632 128.20018341 -27.16148163 127.25118164 -27.16885376 126.27342224 C-27.17154266 125.24419144 -27.17423157 124.21496063 -27.17700195 123.15454102 C-27.18357315 122.06129517 -27.19014435 120.96804932 -27.19691467 119.8416748 C-27.21660345 116.22908456 -27.22829803 112.61653573 -27.23828125 109.00390625 C-27.24235678 107.76930098 -27.2464323 106.5346957 -27.25063133 105.26267815 C-27.26932334 99.40540785 -27.2838965 93.54815379 -27.2922433 87.69085938 C-27.30202297 80.94087142 -27.32837206 74.19121075 -27.36874419 67.44133812 C-27.40256749 61.58459768 -27.41438993 55.72796695 -27.41844749 49.87113762 C-27.42332233 47.38363354 -27.43496165 44.8961332 -27.45348549 42.40869331 C-27.4777859 38.93047975 -27.47692853 35.45312566 -27.4699707 31.97485352 C-27.48278076 30.94764694 -27.49559082 29.92044037 -27.50878906 28.86210632 C-27.4653976 22.91423552 -26.94694734 19.53860019 -23 15 C-19.02417922 11.7795165 -15.14356475 11.4784926 -10.1875 11.3125 C-9.49462891 11.27833984 -8.80175781 11.24417969 -8.08789062 11.20898438 C-6.39247151 11.12713656 -4.69626542 11.06187635 -3 11 C-2.95101562 10.37351562 -2.90203125 9.74703125 -2.8515625 9.1015625 C-2.77679688 8.28429688 -2.70203125 7.46703125 -2.625 6.625 C-2.55539063 5.81289062 -2.48578125 5.00078125 -2.4140625 4.1640625 C-2 2 -2 2 0 0 Z " fill="#822BFE" transform="translate(35,5)"/>
<path d="M0 0 C3.08193978 1.6281946 5.26420667 3.03009062 7.375 5.8125 C8.59875016 10.09562557 8.59895652 13.68229565 6.75 17.75 C5.01379017 19.98226978 3.35678348 21.45590048 1 23 C1.79664062 23.34611328 1.79664062 23.34611328 2.609375 23.69921875 C7.16603362 25.80293158 10.37038121 27.54987589 13 32 C13.86248877 34.66181878 14.44038407 37.24855502 15 40 C15.81726563 39.67257813 16.63453125 39.34515625 17.4765625 39.0078125 C21.59263124 37.83048907 25.13044334 37.77521838 29.375 37.875 C30.47908203 37.88853516 30.47908203 37.88853516 31.60546875 37.90234375 C33.4037888 37.92569856 35.20193911 37.96156164 37 38 C37.08738991 42.37487331 37.140524 46.74952078 37.1875 51.125 C37.21263672 52.3625 37.23777344 53.6 37.26367188 54.875 C37.27817383 56.67324219 37.27817383 56.67324219 37.29296875 58.5078125 C37.31653442 60.15740967 37.31653442 60.15740967 37.34057617 61.84033203 C36.8172453 66.69549196 34.81474117 69.97575396 31.8125 73.75 C25.58443441 78.73245247 17.74362163 78.29378625 10.12109375 78.2746582 C9.05988312 78.27976913 7.99867249 78.28488007 6.90530396 78.29014587 C3.41597776 78.30398578 -0.07314971 78.30308956 -3.5625 78.30078125 C-5.998129 78.3046707 -8.43375732 78.30900589 -10.86938477 78.31376648 C-15.96665652 78.32121624 -21.06385899 78.320946 -26.16113281 78.31567383 C-32.68446174 78.30987504 -39.20750713 78.32682643 -45.73078918 78.3500185 C-50.75803274 78.36476663 -55.78520813 78.36562615 -60.81246948 78.36250877 C-63.21736208 78.36302124 -65.62225858 78.36824502 -68.02713013 78.37832069 C-71.39197114 78.390691 -74.75626121 78.3838898 -78.12109375 78.37231445 C-79.10834442 78.37995819 -80.09559509 78.38760193 -81.11276245 78.39547729 C-87.75342568 78.34512049 -93.6878333 77.65224733 -99.05859375 73.3515625 C-99.74115234 72.49691406 -99.74115234 72.49691406 -100.4375 71.625 C-101.14712891 70.77808594 -101.14712891 70.77808594 -101.87109375 69.9140625 C-104.86878955 64.83146409 -104.12907759 58.5888796 -104.09765625 52.88671875 C-104.0962413 51.91716751 -104.09482635 50.94761627 -104.09336853 49.94868469 C-104.08778513 46.86159133 -104.07523564 43.77457133 -104.0625 40.6875 C-104.05748286 38.59049584 -104.05292032 36.49349054 -104.04882812 34.39648438 C-104.03782112 29.26429479 -104.02056788 24.13215982 -104 19 C-101.44328833 18.19213183 -98.88591806 17.38646246 -96.328125 16.58203125 C-95.60898926 16.354552 -94.88985352 16.12707275 -94.14892578 15.8927002 C-87.81392232 13.90350911 -81.69872858 12 -75 12 C-74.81824219 11.45730469 -74.63648437 10.91460937 -74.44921875 10.35546875 C-74.19785156 9.64003906 -73.94648437 8.92460938 -73.6875 8.1875 C-73.44386719 7.47980469 -73.20023438 6.77210937 -72.94921875 6.04296875 C-71.88300817 3.74820277 -71.03614254 2.5084267 -69 1 C-66.66015625 0.6015625 -66.66015625 0.6015625 -64.0625 0.625 C-62.78052734 0.61339844 -62.78052734 0.61339844 -61.47265625 0.6015625 C-58.53462825 1.07498881 -57.15892057 1.98240831 -55 4 C-53.6957639 7.91270831 -53.70250441 11.90943569 -54 16 C-55.375 18.4375 -55.375 18.4375 -57 20 C-57.66 20 -58.32 20 -59 20 C-59.495 21.485 -59.495 21.485 -60 23 C-62.0625 23.6875 -62.0625 23.6875 -64 24 C-60.93909653 24.80943892 -58.16642083 25.30305678 -55 25 C-53.16831958 23.4691753 -51.96998881 21.77235098 -50.54296875 19.86328125 C-47.5901956 16.29752735 -44.51585384 14.87759837 -40 14 C-36.73795435 13.83737175 -33.51157761 13.91428858 -30.25 14.0625 C-29.00730347 14.11857422 -29.00730347 14.11857422 -27.73950195 14.17578125 C-23.1429003 14.50341186 -19.69802104 14.98596253 -16 18 C-16 18.66 -16 19.32 -16 20 C-15.34 20 -14.68 20 -14 20 C-13.01 21.485 -13.01 21.485 -12 23 C-10.68 22.67 -9.36 22.34 -8 22 C-8.804375 21.38125 -9.60875 20.7625 -10.4375 20.125 C-12.99313576 18.00569229 -13.82432534 17.254819 -14.2734375 14.046875 C-14.46329043 9.75327801 -14.4342668 6.90417036 -11.625 3.5 C-7.66734541 -0.26919485 -5.44976251 -0.45414688 0 0 Z " fill="#2EB0FE" transform="translate(112,76)"/>
<path d="M0 0 C3.0625 0.25 3.0625 0.25 6 1 C7 3 7 3 7 12 C31.42 12 55.84 12 81 12 C81 9.03 81 6.06 81 3 C81.66 2.01 82.32 1.02 83 0 C85.5 -0.3125 85.5 -0.3125 88 0 C90 2 90 2 90.1953125 4.3828125 C90.13020833 6.921875 90.06510417 9.4609375 90 12 C95.28 12 100.56 12 106 12 C106 12.33 106 12.66 106 13 C100.39 13 94.78 13 89 13 C89 15.31 89 17.62 89 20 C89.639375 20.28875 90.27875 20.5775 90.9375 20.875 C93 22 93 22 94 24 C94.54035146 28.05263598 94.34199395 29.53730231 91.875 32.875 C89 35 89 35 86 35.5 C81.68922849 34.78153808 79.05908169 33.05908169 76 30 C75.24976562 30.58007812 74.49953125 31.16015625 73.7265625 31.7578125 C56.37623762 45 56.37623762 45 52 45 C52 45.66 52 46.32 52 47 C50.37660195 48.70884005 48.70680947 50.37446717 47 52 C46.01 52.99 46.01 52.99 45 54 C41.375 54.125 41.375 54.125 38 54 C38 54.66 38 55.32 38 56 C30.68273294 60.13291031 23.63369685 62.34250514 15.4375 64.0625 C13.13538191 64.57015491 10.83329861 65.07796761 8.53125 65.5859375 C7.4175 65.82666992 6.30375 66.06740234 5.15625 66.31542969 C0.90812643 67.23682035 -3.32953278 68.19901505 -7.5625 69.1875 C-8.23885498 69.34452393 -8.91520996 69.50154785 -9.61206055 69.66333008 C-14.52498035 70.82804428 -19.23128533 72.35561563 -24 74 C-24.99 74 -25.98 74 -27 74 C-27.10153917 66.56196775 -27.17152433 59.1241147 -27.21972656 51.68554688 C-27.23982405 49.15585653 -27.26710668 46.62621254 -27.30175781 44.09667969 C-27.35035556 40.45756583 -27.37298812 36.819067 -27.390625 33.1796875 C-27.42159271 31.48717361 -27.42159271 31.48717361 -27.45318604 29.76046753 C-27.45496364 23.5199358 -27.24286884 19.71652782 -23 15 C-19.02417922 11.7795165 -15.14356475 11.4784926 -10.1875 11.3125 C-9.49462891 11.27833984 -8.80175781 11.24417969 -8.08789062 11.20898438 C-6.39247151 11.12713656 -4.69626542 11.06187635 -3 11 C-2.95101562 10.37351562 -2.90203125 9.74703125 -2.8515625 9.1015625 C-2.77679688 8.28429688 -2.70203125 7.46703125 -2.625 6.625 C-2.55539063 5.81289062 -2.48578125 5.00078125 -2.4140625 4.1640625 C-2 2 -2 2 0 0 Z " fill="#BA43FE" transform="translate(35,5)"/>
<path d="M0 0 C3.08193978 1.6281946 5.26420667 3.03009062 7.375 5.8125 C8.59875016 10.09562557 8.59895652 13.68229565 6.75 17.75 C5.01379017 19.98226978 3.35678348 21.45590048 1 23 C1.79664062 23.34611328 1.79664062 23.34611328 2.609375 23.69921875 C7.16603362 25.80293158 10.37038121 27.54987589 13 32 C13.86248877 34.66181878 14.44038407 37.24855502 15 40 C15.81726563 39.67257813 16.63453125 39.34515625 17.4765625 39.0078125 C21.59263124 37.83048907 25.13044334 37.77521838 29.375 37.875 C30.47908203 37.88853516 30.47908203 37.88853516 31.60546875 37.90234375 C33.4037888 37.92569856 35.20193911 37.96156164 37 38 C37.08738991 42.37487331 37.140524 46.74952078 37.1875 51.125 C37.21263672 52.3625 37.23777344 53.6 37.26367188 54.875 C37.27333984 56.07382813 37.28300781 57.27265625 37.29296875 58.5078125 C37.3086792 59.60754395 37.32438965 60.70727539 37.34057617 61.84033203 C36.8172453 66.69549196 34.81474117 69.97575396 31.8125 73.75 C25.13607297 79.09114163 16.54091455 78.26897783 8.40625 78.1953125 C7.21898315 78.1924826 6.03171631 78.18965271 4.80847168 78.18673706 C1.03887599 78.17559598 -2.73047685 78.15050226 -6.5 78.125 C-9.06510072 78.11496237 -11.63020519 78.10583789 -14.1953125 78.09765625 C-20.46362368 78.07567651 -26.73179448 78.0422595 -33 78 C-33.14622803 77.29391602 -33.29245605 76.58783203 -33.44311523 75.86035156 C-34.1070695 72.65672615 -34.77227115 69.45336098 -35.4375 66.25 C-35.66759766 65.13882813 -35.89769531 64.02765625 -36.13476562 62.8828125 C-36.35712891 61.81289062 -36.57949219 60.74296875 -36.80859375 59.640625 C-37.01282959 58.65610352 -37.21706543 57.67158203 -37.42749023 56.65722656 C-37.90773565 54.42823248 -38.44698419 52.21206324 -39 50 C-31.74 50 -24.48 50 -17 50 C-20.20753421 45.04384813 -20.20753421 45.04384813 -23.953125 40.921875 C-24.48615234 40.4055249 -25.01917969 39.8891748 -25.56835938 39.35717773 C-26.12330078 38.82680908 -26.67824219 38.29644043 -27.25 37.75 C-31.98389386 33.13869437 -36.27121754 28.4412909 -40.21875 23.12109375 C-42.2466717 20.70626593 -44.48893114 18.89620097 -47 17 C-41.20085311 13.98319313 -36.83640743 13.66058634 -30.375 14.125 C-29.54226562 14.16109375 -28.70953125 14.1971875 -27.8515625 14.234375 C-23.20594925 14.51547899 -19.73043643 14.9395195 -16 18 C-16 18.66 -16 19.32 -16 20 C-15.34 20 -14.68 20 -14 20 C-13.34 20.99 -12.68 21.98 -12 23 C-10.68 22.67 -9.36 22.34 -8 22 C-8.804375 21.38125 -9.60875 20.7625 -10.4375 20.125 C-12.99313576 18.00569229 -13.82432534 17.254819 -14.2734375 14.046875 C-14.46329043 9.75327801 -14.4342668 6.90417036 -11.625 3.5 C-7.66734541 -0.26919485 -5.44976251 -0.45414688 0 0 Z " fill="#2E89FE" transform="translate(112,76)"/>
<path d="M0 0 C3.0625 0.25 3.0625 0.25 6 1 C7 3 7 3 7 12 C31.42 12 55.84 12 81 12 C81 9.03 81 6.06 81 3 C81.66 2.01 82.32 1.02 83 0 C85.5 -0.3125 85.5 -0.3125 88 0 C90 2 90 2 90.1953125 4.3828125 C90.13020833 6.921875 90.06510417 9.4609375 90 12 C95.28 12 100.56 12 106 12 C106 12.33 106 12.66 106 13 C100.39 13 94.78 13 89 13 C89 15.31 89 17.62 89 20 C89.639375 20.28875 90.27875 20.5775 90.9375 20.875 C93 22 93 22 94 24 C94.54035146 28.05263598 94.34199395 29.53730231 91.875 32.875 C89 35 89 35 86 35.5 C82.67038979 34.94506497 80.69908083 34.00503147 78 32 C76.59542263 29.19084526 76.75104843 27.11189466 77 24 C78.375 21.625 78.375 21.625 80 20 C80.66 20 81.32 20 82 20 C82 17.69 82 15.38 82 13 C63.52 13 45.04 13 26 13 C25.34 14.65 24.68 16.3 24 18 C21.3203125 20.24609375 21.3203125 20.24609375 18.125 22.4375 C13.56591869 25.56836788 11.00391724 28.38933634 8 33 C6.17578125 34.21484375 6.17578125 34.21484375 4.3125 34.9375 C1.03609897 36.38633055 -1.39742823 38.05377039 -4.125 40.375 C-10.35224098 45.4067846 -18.89703123 50 -27 50 C-27.09941096 45.9799737 -27.17172063 41.96043037 -27.21972656 37.93945312 C-27.23975319 36.57376632 -27.26698332 35.20816431 -27.30175781 33.84277344 C-27.35066432 31.87212898 -27.37091347 29.90084017 -27.390625 27.9296875 C-27.41157227 26.74616699 -27.43251953 25.56264648 -27.45410156 24.34326172 C-26.78536134 19.41975168 -24.56466914 16.26740903 -20.73828125 13.16796875 C-17.23993503 11.67580681 -13.93572763 11.43803872 -10.1875 11.3125 C-9.49462891 11.27833984 -8.80175781 11.24417969 -8.08789062 11.20898438 C-6.39247151 11.12713656 -4.69626542 11.06187635 -3 11 C-2.95101562 10.37351562 -2.90203125 9.74703125 -2.8515625 9.1015625 C-2.77679688 8.28429688 -2.70203125 7.46703125 -2.625 6.625 C-2.55539063 5.81289062 -2.48578125 5.00078125 -2.4140625 4.1640625 C-2 2 -2 2 0 0 Z " fill="#E94FFE" transform="translate(35,5)"/>
<path d="M0 0 C3.55699216 1.77849608 5.49881258 3.33175011 7.875 6.5 C9.55336502 11.72158005 10.18979283 16.59789715 9 22 C6.21823528 25.3494718 2.8353692 27.0823154 -1 29 C0.65 29.66 2.3 30.32 4 31 C4 31.33 4 31.66 4 32 C2.96101563 31.94199219 1.92203125 31.88398437 0.8515625 31.82421875 C-7.71678816 31.48893099 -14.89265428 31.50667303 -22 37 C-23.40403639 38.66411656 -23.40403639 38.66411656 -24.5625 40.375 C-27 43 -27 43 -29.05078125 43.15625 C-30.61007134 42.9675628 -32.16376811 42.72570218 -33.70703125 42.43359375 C-36.84867446 41.83951812 -39.81129585 41.93215523 -43 42 C-43 41.67 -43 41.34 -43 41 C-42.26394531 40.92523438 -41.52789062 40.85046875 -40.76953125 40.7734375 C-34.12517143 40.00598073 -34.12517143 40.00598073 -28.8125 36.3125 C-26.10395156 31.36239423 -26.48726975 27.97767383 -27.875 22.625 C-28.7210704 19.8703222 -28.7210704 19.8703222 -31 19 C-32.64142541 18.85359499 -34.2898141 18.77903411 -35.9375 18.75 C-36.81277344 18.72421875 -37.68804687 18.6984375 -38.58984375 18.671875 C-41.01965629 18.81497304 -41.01965629 18.81497304 -42.7421875 20.22265625 C-44.26139051 22.36935616 -44.70195706 24.1103875 -45.1875 26.6875 C-45.42533203 27.89986328 -45.42533203 27.89986328 -45.66796875 29.13671875 C-45.83232422 30.05904297 -45.83232422 30.05904297 -46 31 C-46.33 30.34 -46.66 29.68 -47 29 C-48.05127075 29.26478149 -48.05127075 29.26478149 -49.1237793 29.53491211 C-52.31137429 30.33702021 -55.49943097 31.13727819 -58.6875 31.9375 C-60.34168945 32.35418945 -60.34168945 32.35418945 -62.02929688 32.77929688 C-63.09599609 33.04677734 -64.16269531 33.31425781 -65.26171875 33.58984375 C-66.73064575 33.95903931 -66.73064575 33.95903931 -68.22924805 34.33569336 C-70.80523785 34.95330445 -73.40244809 35.48048962 -76 36 C-76 30.72 -76 25.44 -76 20 C-62.17889993 15.45128352 -48.44460249 11.80693746 -34.11450195 9.21826172 C-27.26288765 7.92114619 -21.36283622 6.12422569 -15.11816406 2.99267578 C-13 2 -13 2 -11 2 C-11 1.34 -11 0.68 -11 0 C-7.49290795 -1.75354603 -3.73469178 -0.80478207 0 0 Z " fill="#9864FE" transform="translate(84,59)"/>
<path d="M0 0 C3.69252583 1.20418677 5.0347115 2.59493567 7.50390625 5.5625 C8.27605469 6.47 9.04820313 7.3775 9.84375 8.3125 C10.57722656 9.199375 11.31070313 10.08625 12.06640625 11 C13.22779301 12.35869763 14.39400927 13.71329142 15.56640625 15.0625 C16.39011719 16.01576172 16.39011719 16.01576172 17.23046875 16.98828125 C20.08654264 20.11780902 23.16355617 23.01697518 26.24609375 25.921875 C28.06640625 28 28.06640625 28 29.06640625 32 C7.94640625 32 -13.17359375 32 -34.93359375 32 C-37.32203908 27.22310934 -36.41129147 20.63700767 -34.80859375 15.6875 C-33.04047473 11.73523395 -31.0043852 8.71284668 -26.93359375 7 C-21.0256339 6.0187709 -14.73427369 5.12415823 -8.93359375 7 C-8.57007812 6.48308594 -8.2065625 5.96617188 -7.83203125 5.43359375 C-7.32929687 4.77488281 -6.8265625 4.11617188 -6.30859375 3.4375 C-5.82132813 2.77621094 -5.3340625 2.11492187 -4.83203125 1.43359375 C-2.93359375 0 -2.93359375 0 0 0 Z " fill="#1A9DFE" transform="translate(65.93359375,94)"/>
<path d="M0 0 C1.46020028 0.00078731 2.92055773 0.02879115 4.37988281 0.0793457 C5.53668549 0.08995781 5.53668549 0.08995781 6.71685791 0.1007843 C9.17323993 0.12871117 11.62731832 0.19143957 14.08300781 0.25512695 C15.75094357 0.28021234 17.41891517 0.30302511 19.08691406 0.32348633 C23.16982909 0.37853134 27.2510283 0.46478638 31.33300781 0.56762695 C31.56738281 7.30981445 31.56738281 7.30981445 29.45800781 9.63012695 C28.75675781 10.26950195 28.05550781 10.90887695 27.33300781 11.56762695 C26.94242188 12.97334961 26.94242188 12.97334961 26.54394531 14.4074707 C25.02706187 18.36604717 23.26350634 19.62737542 19.83300781 22.06762695 C18.228125 23.21038086 18.228125 23.21038086 16.59082031 24.3762207 C4.41322172 32.56762695 4.41322172 32.56762695 1.33300781 32.56762695 C1.00300781 33.22762695 0.67300781 33.88762695 0.33300781 34.56762695 C-0.22386719 33.88700195 -0.78074219 33.20637695 -1.35449219 32.50512695 C-2.11761719 31.86575195 -2.88074219 31.22637695 -3.66699219 30.56762695 C-8.20188775 31.04618377 -12.05650685 32.96287579 -16.16699219 34.82543945 C-19.06578903 35.68601977 -20.78925286 35.37956055 -23.66699219 34.56762695 C-22.34372078 30.20083131 -20.01170379 27.43184439 -17.00683594 24.1184082 C-15.57610138 22.59113241 -15.57610138 22.59113241 -14.66699219 20.56762695 C-18.62699219 21.06262695 -18.62699219 21.06262695 -22.66699219 21.56762695 C-21.04548991 17.17693571 -17.70545035 14.64133839 -14.29199219 11.63012695 C-13.13519109 10.60372419 -11.98147986 9.57382728 -10.83105469 8.5402832 C-10.32010254 8.08919189 -9.80915039 7.63810059 -9.28271484 7.17333984 C-7.49886518 5.51756212 -7.49886518 5.51756212 -5.97216797 2.91235352 C-3.66699219 0.56762695 -3.66699219 0.56762695 0 0 Z " fill="#A526FF" transform="translate(85.6669921875,17.432373046875)"/>
<path d="M0 0 C0 12.87 0 25.74 0 39 C-7.92 39.495 -7.92 39.495 -16 40 C-18.97 40.495 -18.97 40.495 -22 41 C-22.23074219 40.32453125 -22.46148437 39.6490625 -22.69921875 38.953125 C-25.28028321 31.78752783 -25.28028321 31.78752783 -31 27 C-33.64329595 25.87278441 -36.27346586 24.92424886 -39 24 C-36 22 -36 22 -33.9375 21.6875 C-31.82359169 21.15941213 -31.82359169 21.15941213 -30.75 19.0625 C-29.68138847 14.69900292 -29.84379067 10.46932259 -30 6 C-27.14732627 5.18193166 -24.29304815 4.37042204 -21.4375 3.5625 C-20.63763672 3.33240234 -19.83777344 3.10230469 -19.01367188 2.86523438 C-12.62025748 1.06464012 -6.68225177 0 0 0 Z " fill="#4F48FF" transform="translate(149,75)"/>
<path d="M0 0 C1.28197266 -0.01160156 1.28197266 -0.01160156 2.58984375 -0.0234375 C5.52787175 0.44998881 6.90357943 1.35740831 9.0625 3.375 C10.3667361 7.28770831 10.35999559 11.28443569 10.0625 15.375 C8.6875 17.8125 8.6875 17.8125 7.0625 19.375 C6.4025 19.375 5.7425 19.375 5.0625 19.375 C4.5675 20.86 4.5675 20.86 4.0625 22.375 C0.85824867 23.31183619 -2.35632243 23.84286512 -5.640625 24.43359375 C-9.39143326 25.50461838 -11.2281294 26.57687416 -13.9375 29.375 C-14.31777344 30.54160156 -14.69804688 31.70820312 -15.08984375 32.91015625 C-17.18686442 36.84262418 -17.72307261 37.04628468 -21.75390625 38.37109375 C-23.66169619 38.88080862 -25.57773495 39.36042834 -27.5 39.8125 C-28.47130859 40.06708984 -29.44261719 40.32167969 -30.44335938 40.58398438 C-37.39018278 42.375 -37.39018278 42.375 -39.9375 42.375 C-39.9375 34.455 -39.9375 26.535 -39.9375 18.375 C-18.01644737 11.375 -18.01644737 11.375 -10.9375 11.375 C-10.75574219 10.83230469 -10.57398437 10.28960937 -10.38671875 9.73046875 C-10.13535156 9.01503906 -9.88398437 8.29960938 -9.625 7.5625 C-9.38136719 6.85480469 -9.13773438 6.14710937 -8.88671875 5.41796875 C-6.83225811 0.99622836 -4.83039945 -0.04358255 0 0 Z " fill="#7670FE" transform="translate(47.9375,76.625)"/>
<path d="M0 0 C1.10408203 0.01353516 1.10408203 0.01353516 2.23046875 0.02734375 C4.0287888 0.05069856 5.82693911 0.08656164 7.625 0.125 C7.71238991 4.49987331 7.765524 8.87452078 7.8125 13.25 C7.83763672 14.4875 7.86277344 15.725 7.88867188 17 C7.89833984 18.19882813 7.90800781 19.39765625 7.91796875 20.6328125 C7.9336792 21.73254395 7.94938965 22.83227539 7.96557617 23.96533203 C7.4422453 28.82049196 5.43974117 32.10075396 2.4375 35.875 C-3.44181957 40.57845566 -10.17153595 40.42514434 -17.375 40.125 C-17.85459778 37.89592605 -18.3336608 35.66673703 -18.8125 33.4375 C-19.21275391 31.57544922 -19.21275391 31.57544922 -19.62109375 29.67578125 C-19.86988281 28.50402344 -20.11867188 27.33226562 -20.375 26.125 C-20.56964844 25.23683594 -20.76429687 24.34867188 -20.96484375 23.43359375 C-21.58611587 19.93671924 -21.49331143 16.67434304 -21.375 13.125 C-21.045 12.795 -20.715 12.465 -20.375 12.125 C-18.725 12.125 -17.075 12.125 -15.375 12.125 C-15.045 8.825 -14.715 5.525 -14.375 2.125 C-9.40488327 0.13381759 -5.25166865 -0.12345695 0 0 Z " fill="#3463FF" transform="translate(141.375,113.875)"/>
<path d="M0 0 C3.0625 0.25 3.0625 0.25 6 1 C7 3 7 3 7 12 C31.42 12 55.84 12 81 12 C81 9.03 81 6.06 81 3 C81.66 2.01 82.32 1.02 83 0 C85.5 -0.3125 85.5 -0.3125 88 0 C90 2 90 2 90.1953125 4.3828125 C90.13020833 6.921875 90.06510417 9.4609375 90 12 C95.28 12 100.56 12 106 12 C106 12.33 106 12.66 106 13 C100.39 13 94.78 13 89 13 C89 15.31 89 17.62 89 20 C89.639375 20.28875 90.27875 20.5775 90.9375 20.875 C93 22 93 22 94 24 C94.54035146 28.05263598 94.34199395 29.53730231 91.875 32.875 C89 35 89 35 86 35.5 C82.67038979 34.94506497 80.69908083 34.00503147 78 32 C76.59542263 29.19084526 76.75104843 27.11189466 77 24 C78.375 21.625 78.375 21.625 80 20 C80.66 20 81.32 20 82 20 C82 17.69 82 15.38 82 13 C56.92 13 31.84 13 6 13 C6.52565835 19.31483984 6.52565835 19.31483984 8 22 C7.34 22 6.68 22 6 22 C5.67 23.32 5.34 24.64 5 26 C3.1875 26.6875 3.1875 26.6875 1 27 C-0.75 25.6875 -0.75 25.6875 -2 24 C-2 23.34 -2 22.68 -2 22 C-2.66 21.67 -3.32 21.34 -4 21 C-3.67 20.67 -3.34 20.34 -3 20 C-2.67 17.69 -2.34 15.38 -2 13 C-7.28 13 -12.56 13 -18 13 C-18 12.67 -18 12.34 -18 12 C-13.05 11.67 -8.1 11.34 -3 11 C-2.87625 9.55625 -2.7525 8.1125 -2.625 6.625 C-2.25 2.25 -2.25 2.25 0 0 Z " fill="#DAE0FE" transform="translate(35,5)"/>
<path d="M0 0 C3.55699216 1.77849608 5.49881258 3.33175011 7.875 6.5 C9.55432598 11.72456971 10.18322001 16.59416358 9 22 C6.00211566 25.68489951 2.44850752 27.51716416 -2 29 C-7.91644194 28.48857875 -12.75988412 27.3726195 -17 23 C-19.97709357 18.53435964 -19.49063212 14.23596468 -19 9 C-17.58696657 5.35586114 -16.80817551 4.39469036 -13.3125 2.6875 C-12.549375 2.460625 -11.78625 2.23375 -11 2 C-11 1.34 -11 0.68 -11 0 C-7.49290795 -1.75354603 -3.73469178 -0.80478207 0 0 Z " fill="#358CFE" transform="translate(84,59)"/>
<path d="M0 0 C-0.21462891 1.44052734 -0.21462891 1.44052734 -0.43359375 2.91015625 C-1.07621257 7.40848801 -1.5710519 11.92058102 -2.0625 16.4375 C-2.371875 19.263125 -2.68125 22.08875 -3 25 C-10.26 25 -17.52 25 -25 25 C-27.38844533 20.22310934 -26.47769772 13.63700767 -24.875 8.6875 C-23.09270568 4.61132688 -20.83422814 2.34313942 -17 0 C-11.27053579 -1.517247 -5.77718801 -0.94535804 0 0 Z " fill="#1BECFE" transform="translate(56,101)"/>
<path d="M0 0 C3.08193978 1.6281946 5.26420667 3.03009062 7.375 5.8125 C8.59875016 10.09562557 8.59895652 13.68229565 6.75 17.75 C5.01379017 19.98226978 3.35678348 21.45590048 1 23 C2.65 23.66 4.3 24.32 6 25 C2.33012779 26.22329074 -0.33967822 25.88021006 -4.1875 25.5625 C-5.45980469 25.46066406 -6.73210937 25.35882813 -8.04296875 25.25390625 C-9.01878906 25.17011719 -9.99460937 25.08632812 -11 25 C-11.33 25.66 -11.66 26.32 -12 27 C-12.66 25.35 -13.32 23.7 -14 22 C-12.02 22.33 -10.04 22.66 -8 23 C-8.433125 22.59910156 -8.86625 22.19820312 -9.3125 21.78515625 C-12.49826759 18.53301851 -14.45870786 16.09223668 -14.6875 11.4375 C-14.36230674 6.55960116 -12.48076049 4.31500999 -9 1 C-5.89046621 -0.5547669 -3.43733239 -0.28644437 0 0 Z " fill="#3F92FE" transform="translate(112,76)"/>
<path d="M0 0 C0.86367188 -0.01675781 1.72734375 -0.03351563 2.6171875 -0.05078125 C5.59819613 0.3810471 6.94588142 1.266495 9.125 3.3125 C10.4292361 7.22520831 10.42249559 11.22193569 10.125 15.3125 C8.75 17.75 8.75 17.75 7.125 19.3125 C6.465 19.3125 5.805 19.3125 5.125 19.3125 C5.125 19.9725 5.125 20.6325 5.125 21.3125 C-2.625 21.4375 -2.625 21.4375 -4.875 20.3125 C-4.875 19.6525 -4.875 18.9925 -4.875 18.3125 C-5.514375 18.209375 -6.15375 18.10625 -6.8125 18 C-7.493125 17.773125 -8.17375 17.54625 -8.875 17.3125 C-10.40244622 12.73016133 -10.64947996 8.89666356 -8.5 4.5 C-5.73967203 0.78417389 -4.58996306 0.0204301 0 0 Z " fill="#19EDFE" transform="translate(47.875,76.6875)"/>
<path d="M0 0 C3.0625 0.25 3.0625 0.25 6 1 C7.89325087 4.78650175 7.02980434 9.68491591 6.9609375 13.87890625 C6.79006557 18.0710661 6.79006557 18.0710661 8 22 C7.34 22 6.68 22 6 22 C5.67 23.32 5.34 24.64 5 26 C3.1875 26.6875 3.1875 26.6875 1 27 C-0.75 25.6875 -0.75 25.6875 -2 24 C-2 23.34 -2 22.68 -2 22 C-2.66 21.67 -3.32 21.34 -4 21 C-3.67 20.67 -3.34 20.34 -3 20 C-2.67 17.69 -2.34 15.38 -2 13 C-7.28 13 -12.56 13 -18 13 C-18 12.67 -18 12.34 -18 12 C-13.05 11.67 -8.1 11.34 -3 11 C-2.87625 9.55625 -2.7525 8.1125 -2.625 6.625 C-2.25 2.25 -2.25 2.25 0 0 Z " fill="#E2F7FE" transform="translate(35,5)"/>
<path d="M0 0 C-0.33 2.64 -0.66 5.28 -1 8 C-3.91229133 9.17780436 -6.83047678 10.34025075 -9.75 11.5 C-10.9875 12.00080078 -10.9875 12.00080078 -12.25 12.51171875 C-13.04921875 12.82753906 -13.8484375 13.14335938 -14.671875 13.46875 C-15.4050293 13.76201172 -16.13818359 14.05527344 -16.89355469 14.35742188 C-19 15 -19 15 -23 15 C-23 11.7 -23 8.4 -23 5 C-19.9204031 3.96647769 -16.83718149 2.94789104 -13.75 1.9375 C-12.87730469 1.64294922 -12.00460938 1.34839844 -11.10546875 1.04492188 C-10.26113281 0.77099609 -9.41679687 0.49707031 -8.546875 0.21484375 C-7.77182617 -0.04176025 -6.99677734 -0.29836426 -6.19824219 -0.56274414 C-3.77358397 -1.04503677 -2.32152179 -0.7792359 0 0 Z " fill="#2C87FF" transform="translate(31,114)"/>
<path d="M0 0 C6.6 0 13.2 0 20 0 C17.83896273 5.40259318 16.58410371 6.44226312 12 9.6875 C7.81511907 12.62625694 7.81511907 12.62625694 4 16 C3.71125 14.88625 3.4225 13.7725 3.125 12.625 C2.30758671 8.99708908 2.30758671 8.99708908 0 7 C0 4.69 0 2.38 0 0 Z " fill="#E944FE" transform="translate(41,18)"/>
<path d="M0 0 C-0.99 1.485 -0.99 1.485 -2 3 C-2.54525136 6.06488659 -2.54413695 8.93451559 -2 12 C0.22976163 14.98119541 0.22976163 14.98119541 3 17 C3.66 17.66 4.32 18.32 5 19 C3.02 19.33 1.04 19.66 -1 20 C-1.66 18.68 -2.32 17.36 -3 16 C-3.66 16 -4.32 16 -5 16 C-5 15.34 -5 14.68 -5 14 C-10.9877651 11.53444967 -16.54300416 9.7748395 -23 9 C-23 8.67 -23 8.34 -23 8 C-22.41992188 7.84144531 -21.83984375 7.68289062 -21.2421875 7.51953125 C-17.20244659 6.31294197 -13.91229454 5.230999 -10.75 2.375 C-6.97233539 -0.88752852 -4.72242835 -1.57414278 0 0 Z " fill="#514AFF" transform="translate(101,80)"/>
<path d="M0 0 C0.66 0 1.32 0 2 0 C2.66 1.32 3.32 2.64 4 4 C5.32 4 6.64 4 8 4 C9.77409808 2.07977297 9.77409808 2.07977297 11 0 C13 3 13 3 12.75 6.0625 C12 9 12 9 10 11 C3.0031348 11.67711599 3.0031348 11.67711599 -0.5 9.3125 C-2.27331609 6.5786377 -2.50500243 5.19834873 -2 2 C-1.34 1.34 -0.68 0.68 0 0 Z " fill="#8531FE" transform="translate(115,27)"/>
<path d="M0 0 C0.66 0 1.32 0 2 0 C2.33 1.32 2.66 2.64 3 4 C4.65 4 6.3 4 8 4 C8.66 2.68 9.32 1.36 10 0 C10.66 0 11.32 0 12 0 C13.39935013 2.79870027 13.25265405 4.90498792 13 8 C12 9.875 12 9.875 10 11 C6.40216898 11.53967465 3.21820324 11.68523932 0 9.875 C-1.44185259 7.1715264 -1.25635542 5.01217617 -1 2 C-0.67 1.34 -0.34 0.68 0 0 Z " fill="#832DFF" transform="translate(31,27)"/>
<path d="M0 0 C2.97 0 5.94 0 9 0 C9 0.66 9 1.32 9 2 C10.65 2.66 12.3 3.32 14 4 C10.33012779 5.22329074 7.66032178 4.88021006 3.8125 4.5625 C2.54019531 4.46066406 1.26789063 4.35882813 -0.04296875 4.25390625 C-1.01878906 4.17011719 -1.99460937 4.08632812 -3 4 C-3.33 4.66 -3.66 5.32 -4 6 C-4.66 4.35 -5.32 2.7 -6 1 C-3.03 1.495 -3.03 1.495 0 2 C0 1.34 0 0.68 0 0 Z " fill="#92B9FE" transform="translate(104,97)"/>
</svg>
